<mxfile host="app.diagrams.net" modified="2021-10-19T13:29:47.767Z" agent="5.0 (Windows NT 10.0; Win64; x64) AppleWebKit/537.36 (KHTML, like Gecko) Chrome/94.0.4606.81 Safari/537.36" etag="HFLuvIGeUUU_P2PeRLwL" version="15.5.5" type="github">
  <diagram id="jfoCRSKp50vlTCnvZ2ff" name="Page-1">
    <mxGraphModel dx="1422" dy="1963" grid="1" gridSize="10" guides="1" tooltips="1" connect="1" arrows="1" fold="1" page="1" pageScale="1" pageWidth="827" pageHeight="1169" math="0" shadow="0">
      <root>
        <mxCell id="0" />
        <mxCell id="1" parent="0" />
        <mxCell id="mYCx0HMlxfm1ZyN0S1oa-1" value="A" style="rounded=0;whiteSpace=wrap;html=1;" vertex="1" parent="1">
          <mxGeometry x="354" y="140" width="120" height="60" as="geometry" />
        </mxCell>
        <mxCell id="mYCx0HMlxfm1ZyN0S1oa-2" value="B" style="rounded=0;whiteSpace=wrap;html=1;" vertex="1" parent="1">
          <mxGeometry x="70" y="380" width="120" height="60" as="geometry" />
        </mxCell>
        <mxCell id="mYCx0HMlxfm1ZyN0S1oa-3" value="C" style="rounded=0;whiteSpace=wrap;html=1;" vertex="1" parent="1">
          <mxGeometry x="640" y="380" width="120" height="60" as="geometry" />
        </mxCell>
        <mxCell id="mYCx0HMlxfm1ZyN0S1oa-4" value="R1" style="rhombus;whiteSpace=wrap;html=1;" vertex="1" parent="1">
          <mxGeometry x="374" y="250" width="80" height="80" as="geometry" />
        </mxCell>
        <mxCell id="mYCx0HMlxfm1ZyN0S1oa-5" value="D" style="rounded=0;whiteSpace=wrap;html=1;" vertex="1" parent="1">
          <mxGeometry x="354" y="620" width="120" height="60" as="geometry" />
        </mxCell>
        <mxCell id="mYCx0HMlxfm1ZyN0S1oa-15" value="R" style="rounded=0;whiteSpace=wrap;html=1;" vertex="1" parent="1">
          <mxGeometry x="354" y="380" width="120" height="60" as="geometry" />
        </mxCell>
        <mxCell id="mYCx0HMlxfm1ZyN0S1oa-18" value="R2" style="rhombus;whiteSpace=wrap;html=1;" vertex="1" parent="1">
          <mxGeometry x="230" y="370" width="80" height="80" as="geometry" />
        </mxCell>
        <mxCell id="mYCx0HMlxfm1ZyN0S1oa-19" value="R3" style="rhombus;whiteSpace=wrap;html=1;" vertex="1" parent="1">
          <mxGeometry x="520" y="370" width="80" height="80" as="geometry" />
        </mxCell>
        <mxCell id="mYCx0HMlxfm1ZyN0S1oa-20" value="R4" style="rhombus;whiteSpace=wrap;html=1;" vertex="1" parent="1">
          <mxGeometry x="374" y="480" width="80" height="80" as="geometry" />
        </mxCell>
        <mxCell id="mYCx0HMlxfm1ZyN0S1oa-30" value="" style="endArrow=none;html=1;rounded=0;entryX=0.5;entryY=1;entryDx=0;entryDy=0;" edge="1" parent="1" source="mYCx0HMlxfm1ZyN0S1oa-15" target="mYCx0HMlxfm1ZyN0S1oa-4">
          <mxGeometry width="50" height="50" relative="1" as="geometry">
            <mxPoint x="390" y="430" as="sourcePoint" />
            <mxPoint x="440" y="380" as="targetPoint" />
          </mxGeometry>
        </mxCell>
        <mxCell id="mYCx0HMlxfm1ZyN0S1oa-31" value="" style="endArrow=none;html=1;rounded=0;entryX=0.5;entryY=1;entryDx=0;entryDy=0;" edge="1" parent="1" target="mYCx0HMlxfm1ZyN0S1oa-1">
          <mxGeometry width="50" height="50" relative="1" as="geometry">
            <mxPoint x="414" y="250" as="sourcePoint" />
            <mxPoint x="414" y="210" as="targetPoint" />
          </mxGeometry>
        </mxCell>
        <mxCell id="mYCx0HMlxfm1ZyN0S1oa-34" value="" style="endArrow=none;html=1;rounded=0;entryX=1;entryY=0.5;entryDx=0;entryDy=0;exitX=0;exitY=0.5;exitDx=0;exitDy=0;" edge="1" parent="1" source="mYCx0HMlxfm1ZyN0S1oa-15" target="mYCx0HMlxfm1ZyN0S1oa-18">
          <mxGeometry width="50" height="50" relative="1" as="geometry">
            <mxPoint x="320" y="480" as="sourcePoint" />
            <mxPoint x="320" y="430" as="targetPoint" />
          </mxGeometry>
        </mxCell>
        <mxCell id="mYCx0HMlxfm1ZyN0S1oa-35" value="" style="endArrow=none;html=1;rounded=0;entryX=0.5;entryY=1;entryDx=0;entryDy=0;exitX=0.5;exitY=0;exitDx=0;exitDy=0;" edge="1" parent="1" source="mYCx0HMlxfm1ZyN0S1oa-5" target="mYCx0HMlxfm1ZyN0S1oa-20">
          <mxGeometry width="50" height="50" relative="1" as="geometry">
            <mxPoint x="380" y="585" as="sourcePoint" />
            <mxPoint x="380" y="535" as="targetPoint" />
          </mxGeometry>
        </mxCell>
        <mxCell id="mYCx0HMlxfm1ZyN0S1oa-36" value="" style="endArrow=none;html=1;rounded=0;entryX=0.5;entryY=1;entryDx=0;entryDy=0;exitX=0.5;exitY=0;exitDx=0;exitDy=0;" edge="1" parent="1" source="mYCx0HMlxfm1ZyN0S1oa-20" target="mYCx0HMlxfm1ZyN0S1oa-15">
          <mxGeometry width="50" height="50" relative="1" as="geometry">
            <mxPoint x="413.5" y="480" as="sourcePoint" />
            <mxPoint x="413.5" y="430" as="targetPoint" />
          </mxGeometry>
        </mxCell>
        <mxCell id="mYCx0HMlxfm1ZyN0S1oa-37" value="" style="endArrow=none;html=1;rounded=0;entryX=1;entryY=0.5;entryDx=0;entryDy=0;exitX=0;exitY=0.5;exitDx=0;exitDy=0;" edge="1" parent="1" source="mYCx0HMlxfm1ZyN0S1oa-3" target="mYCx0HMlxfm1ZyN0S1oa-19">
          <mxGeometry width="50" height="50" relative="1" as="geometry">
            <mxPoint x="610" y="460" as="sourcePoint" />
            <mxPoint x="610" y="410" as="targetPoint" />
          </mxGeometry>
        </mxCell>
        <mxCell id="mYCx0HMlxfm1ZyN0S1oa-38" value="" style="endArrow=none;html=1;rounded=0;entryX=0.5;entryY=1;entryDx=0;entryDy=0;" edge="1" parent="1">
          <mxGeometry width="50" height="50" relative="1" as="geometry">
            <mxPoint x="474" y="440" as="sourcePoint" />
            <mxPoint x="474" y="390" as="targetPoint" />
          </mxGeometry>
        </mxCell>
        <mxCell id="mYCx0HMlxfm1ZyN0S1oa-39" value="" style="endArrow=none;html=1;rounded=0;entryX=0;entryY=0.5;entryDx=0;entryDy=0;exitX=1;exitY=0.5;exitDx=0;exitDy=0;" edge="1" parent="1" source="mYCx0HMlxfm1ZyN0S1oa-15" target="mYCx0HMlxfm1ZyN0S1oa-19">
          <mxGeometry width="50" height="50" relative="1" as="geometry">
            <mxPoint x="480" y="410" as="sourcePoint" />
            <mxPoint x="484" y="400" as="targetPoint" />
          </mxGeometry>
        </mxCell>
        <mxCell id="mYCx0HMlxfm1ZyN0S1oa-40" value="" style="endArrow=none;html=1;rounded=0;entryX=1;entryY=0.5;entryDx=0;entryDy=0;" edge="1" parent="1" source="mYCx0HMlxfm1ZyN0S1oa-18" target="mYCx0HMlxfm1ZyN0S1oa-2">
          <mxGeometry width="50" height="50" relative="1" as="geometry">
            <mxPoint x="210" y="470" as="sourcePoint" />
            <mxPoint x="210" y="420" as="targetPoint" />
          </mxGeometry>
        </mxCell>
        <mxCell id="mYCx0HMlxfm1ZyN0S1oa-41" value="R" style="rhombus;whiteSpace=wrap;html=1;" vertex="1" parent="1">
          <mxGeometry x="380" y="-100" width="80" height="80" as="geometry" />
        </mxCell>
        <mxCell id="mYCx0HMlxfm1ZyN0S1oa-43" value="A" style="rounded=0;whiteSpace=wrap;html=1;" vertex="1" parent="1">
          <mxGeometry x="360" y="-190" width="120" height="60" as="geometry" />
        </mxCell>
        <mxCell id="mYCx0HMlxfm1ZyN0S1oa-44" value="B" style="rounded=0;whiteSpace=wrap;html=1;" vertex="1" parent="1">
          <mxGeometry x="200" y="-90" width="120" height="60" as="geometry" />
        </mxCell>
        <mxCell id="mYCx0HMlxfm1ZyN0S1oa-45" value="C" style="rounded=0;whiteSpace=wrap;html=1;" vertex="1" parent="1">
          <mxGeometry x="530" y="-90" width="120" height="60" as="geometry" />
        </mxCell>
        <mxCell id="mYCx0HMlxfm1ZyN0S1oa-49" value="D" style="rounded=0;whiteSpace=wrap;html=1;" vertex="1" parent="1">
          <mxGeometry x="360" y="10" width="120" height="60" as="geometry" />
        </mxCell>
        <mxCell id="mYCx0HMlxfm1ZyN0S1oa-51" value="" style="endArrow=none;html=1;rounded=0;entryX=1;entryY=0.5;entryDx=0;entryDy=0;" edge="1" parent="1" source="mYCx0HMlxfm1ZyN0S1oa-41" target="mYCx0HMlxfm1ZyN0S1oa-44">
          <mxGeometry width="50" height="50" relative="1" as="geometry">
            <mxPoint x="390" y="240" as="sourcePoint" />
            <mxPoint x="440" y="190" as="targetPoint" />
          </mxGeometry>
        </mxCell>
        <mxCell id="mYCx0HMlxfm1ZyN0S1oa-52" value="" style="endArrow=none;html=1;rounded=0;entryX=0.5;entryY=1;entryDx=0;entryDy=0;" edge="1" parent="1" source="mYCx0HMlxfm1ZyN0S1oa-49" target="mYCx0HMlxfm1ZyN0S1oa-41">
          <mxGeometry width="50" height="50" relative="1" as="geometry">
            <mxPoint x="390" y="240" as="sourcePoint" />
            <mxPoint x="440" y="190" as="targetPoint" />
          </mxGeometry>
        </mxCell>
        <mxCell id="mYCx0HMlxfm1ZyN0S1oa-53" value="" style="endArrow=none;html=1;rounded=0;entryX=1;entryY=0.5;entryDx=0;entryDy=0;exitX=0;exitY=0.5;exitDx=0;exitDy=0;" edge="1" parent="1" source="mYCx0HMlxfm1ZyN0S1oa-45" target="mYCx0HMlxfm1ZyN0S1oa-41">
          <mxGeometry width="50" height="50" relative="1" as="geometry">
            <mxPoint x="390" y="240" as="sourcePoint" />
            <mxPoint x="440" y="190" as="targetPoint" />
          </mxGeometry>
        </mxCell>
        <mxCell id="mYCx0HMlxfm1ZyN0S1oa-54" value="" style="endArrow=none;html=1;rounded=0;entryX=0.5;entryY=1;entryDx=0;entryDy=0;" edge="1" parent="1" source="mYCx0HMlxfm1ZyN0S1oa-41" target="mYCx0HMlxfm1ZyN0S1oa-43">
          <mxGeometry width="50" height="50" relative="1" as="geometry">
            <mxPoint x="300" y="100" as="sourcePoint" />
            <mxPoint x="350" y="50" as="targetPoint" />
          </mxGeometry>
        </mxCell>
        <mxCell id="mYCx0HMlxfm1ZyN0S1oa-55" value="TRANFORMACION DE UNION CUATERNRIA A UNA N-ARIA" style="rounded=0;whiteSpace=wrap;html=1;" vertex="1" parent="1">
          <mxGeometry x="650" y="80" width="120" height="60" as="geometry" />
        </mxCell>
      </root>
    </mxGraphModel>
  </diagram>
</mxfile>
